<?xml version="1.0" encoding="utf-8"?>
<!-- Generator: Adobe Illustrator 23.0.6, SVG Export Plug-In . SVG Version: 6.00 Build 0)  -->
<svg version="1.1" id="Layer_1" xmlns="http://www.w3.org/2000/svg" xmlns:xlink="http://www.w3.org/1999/xlink" x="0px" y="0px"
	 viewBox="0 0 200 40" style="enable-background:new 0 0 200 40;" xml:space="preserve">
<style type="text/css">
	.st0{fill:#DC291E;}
</style>
<g>
	<g>
		<path class="st0" d="M111.1,37.2V12.5h6.6v3.4c1.7-2.3,4.8-4,7.9-4v6.4c-0.5-0.1-1.1-0.1-1.8-0.1c-2.2,0-5,1.2-6.2,2.9v16.4h-6.5
			V37.2z"/>
		<path class="st0" d="M160.4,37.2V21.6c0-2.3-1-4-3.7-4c-2.4,0-4.2,1.5-5.1,2.9v16.7H145V21.6c0-2.3-1-4-3.7-4
			c-2.3,0-4.2,1.5-5.1,3v16.7h-6.6V12.5h6.6v3.2c1-1.4,4.3-3.9,8.1-3.9c3.7,0,6,1.6,6.9,4.5c1.4-2.3,4.7-4.5,8.5-4.5
			c4.6,0,7.3,2.5,7.3,7.5v18H160.4z"/>
		<path class="st0" d="M172.7,5.9c0-2.2,1.8-3.9,3.9-3.9c2.2,0,3.9,1.7,3.9,3.9s-1.7,3.9-3.9,3.9S172.7,8,172.7,5.9z M173.3,37.2
			V12.5h6.6v24.8h-6.6V37.2z"/>
		<path class="st0" d="M187.6,31V18.1h-4.1v-5.7h4.1V5.7h6.6v6.8h5v5.7h-5v11.2c0,1.5,0.8,2.8,2.3,2.8c0.9,0,2-0.4,2.3-0.7l1.3,4.9
			c-0.9,0.9-2.7,1.6-5.4,1.6C190,37.8,187.6,35.5,187.6,31z"/>
	</g>
	<g>
		<path d="M4.1,37.2V18.1H0v-5.7h4.1v-1.2c0-5.3,3.4-8.6,8.4-8.6c2.4,0,4.9,0.6,6.5,2.3l-2.5,3.9c-0.6-0.7-1.5-1-2.8-1
			c-1.8,0-3.1,1.1-3.1,3.5v1.3h5v5.7h-5v19.1H4.1V37.2z"/>
		<path d="M19.5,37.2V12.5h6.6v3.4c1.6-2.3,4.7-4,7.8-4v6.4c-0.5-0.1-1.1-0.1-1.8-0.1c-2.2,0-5,1.2-6.2,2.9v16.4h-6.4V37.2z"/>
		<path d="M98.2,37.2V21.6c0-2.3-1-4-3.7-4c-2.4,0-4.2,1.5-5.1,2.9v16.7h-6.6V21.6c0-2.3-1-4-3.7-4c-2.3,0-4.2,1.5-5.1,3v16.7h-6.6
			V12.5h6.6v3.2c1-1.4,4.3-3.9,8.1-3.9c3.7,0,6,1.6,6.9,4.5c1.4-2.3,4.7-4.5,8.5-4.5c4.6,0,7.3,2.5,7.3,7.5v18H98.2z"/>
		<path d="M49.5,11.8c-8.2,0-13.1,6-13.1,13s4.9,13,13.1,13s13.1-6,13.1-13S57.7,11.8,49.5,11.8z M49.4,32.1h-1.7v-1.6h-3.2v-3.2
			h-2.4v-4.8h2.5v-3.3h3.2v-1.5h2c4,0,7.3,3.3,7.3,7.3C56.9,28.9,53.4,32.1,49.4,32.1z"/>
	</g>
</g>
</svg>
