<?xml version="1.0" encoding="utf-8"?>
<!-- Generator: Adobe Illustrator 23.0.6, SVG Export Plug-In . SVG Version: 6.00 Build 0)  -->
<svg version="1.1" id="Layer_1" xmlns="http://www.w3.org/2000/svg" xmlns:xlink="http://www.w3.org/1999/xlink" x="0px" y="0px"
	 viewBox="0 0 194.9 34.9" style="enable-background:new 0 0 194.9 34.9;" xml:space="preserve">
<style type="text/css">
	.st0{fill:#DC291E;}
	.st1{fill:#000053;}
</style>
<g>
	<path class="st0" d="M108.2,34.3V10.2h6.4v3.3c1.7-2.2,4.7-3.9,7.7-3.9v6.2c-0.5-0.1-1.1-0.1-1.8-0.1c-2.1,0-4.9,1.2-6,2.8v16
		H108.2z"/>
	<path class="st0" d="M156.2,34.3V19.1c0-2.2-1-3.9-3.6-3.9c-2.3,0-4.1,1.5-5,2.8v16.3h-6.4V19.1c0-2.2-1-3.9-3.6-3.9
		c-2.2,0-4.1,1.5-5,2.9v16.3h-6.4V10.2h6.4v3.1c1-1.4,4.2-3.8,7.9-3.8c3.6,0,5.8,1.6,6.7,4.4c1.4-2.2,4.6-4.4,8.3-4.4
		c4.5,0,7.1,2.4,7.1,7.3v17.5H156.2z"/>
	<path class="st0" d="M168.2,3.8c0-2.1,1.8-3.8,3.8-3.8c2.1,0,3.8,1.7,3.8,3.8s-1.7,3.8-3.8,3.8C169.9,7.6,168.2,5.9,168.2,3.8z
		 M168.8,34.3V10.2h6.4v24.2H168.8z"/>
	<path class="st0" d="M182.7,28.3V15.7h-4v-5.6h4V3.6h6.4v6.6h4.9v5.6h-4.9v10.9c0,1.5,0.8,2.7,2.2,2.7c0.9,0,1.9-0.4,2.2-0.7
		l1.3,4.8c-0.9,0.9-2.6,1.6-5.3,1.6C185.1,34.9,182.7,32.6,182.7,28.3z"/>
</g>
<g>
	<path class="st1" d="M4,34.3V15.7H0v-5.6h4V8.9c0-5.2,3.3-8.4,8.2-8.4c2.3,0,4.8,0.6,6.3,2.2l-2.4,3.8c-0.6-0.7-1.5-1-2.7-1
		c-1.8,0-3,1.1-3,3.4v1.3h4.9v5.6h-4.9v18.6H4z"/>
	<path class="st1" d="M19,34.3V10.2h6.4v3.3C27,11.3,30,9.6,33,9.6v6.2c-0.5-0.1-1.1-0.1-1.8-0.1c-2.1,0-4.9,1.2-6,2.8v16H19z"/>
	<path class="st1" d="M95.6,34.3V19.1c0-2.2-1-3.9-3.6-3.9c-2.3,0-4.1,1.5-5,2.8v16.3h-6.4V19.1c0-2.2-1-3.9-3.6-3.9
		c-2.2,0-4.1,1.5-5,2.9v16.3h-6.4V10.2H72v3.1c1-1.4,4.2-3.8,7.9-3.8c3.6,0,5.8,1.6,6.7,4.4c1.4-2.2,4.6-4.4,8.3-4.4
		c4.5,0,7.1,2.4,7.1,7.3v17.5H95.6z"/>
	<path class="st1" d="M48.2,9.6c-8,0-12.8,5.8-12.8,12.7c0,6.9,4.8,12.7,12.8,12.7c8,0,12.8-5.8,12.8-12.7
		C61,15.4,56.2,9.6,48.2,9.6z M48.1,29.3h-1.7v-1.6h-3.1v-3.1H41v-4.7h2.4v-3.2h3.1v-1.5h1.9c3.9,0,7.1,3.2,7.1,7.1
		C55.4,26.2,52,29.3,48.1,29.3z"/>
</g>
</svg>
